G04 #@! TF.FileFunction,Legend,Top*
%FSLAX46Y46*%
G04 Gerber Fmt 4.6, Leading zero omitted, Abs format (unit mm)*
G04 Created by KiCad (PCBNEW (2015-10-16 BZR 6271)-product) date Thursday, November 26, 2015 'PMt' 11:11:10 PM*
%MOMM*%
G01*
G04 APERTURE LIST*
%ADD10C,0.100000*%
%ADD11C,0.300000*%
%ADD12C,0.127000*%
%ADD13C,0.203200*%
%ADD14C,0.304800*%
%ADD15C,0.152400*%
%ADD16C,0.381000*%
%ADD17C,0.285750*%
%ADD18C,0.254000*%
G04 APERTURE END LIST*
D10*
D11*
X52540334Y-50208571D02*
X52125000Y-49494286D01*
X51828334Y-50208571D02*
X51828334Y-48708571D01*
X52303000Y-48708571D01*
X52421667Y-48780000D01*
X52481000Y-48851429D01*
X52540334Y-48994286D01*
X52540334Y-49208571D01*
X52481000Y-49351429D01*
X52421667Y-49422857D01*
X52303000Y-49494286D01*
X51828334Y-49494286D01*
X53015000Y-50137143D02*
X53193000Y-50208571D01*
X53489667Y-50208571D01*
X53608334Y-50137143D01*
X53667667Y-50065714D01*
X53727000Y-49922857D01*
X53727000Y-49780000D01*
X53667667Y-49637143D01*
X53608334Y-49565714D01*
X53489667Y-49494286D01*
X53252334Y-49422857D01*
X53133667Y-49351429D01*
X53074334Y-49280000D01*
X53015000Y-49137143D01*
X53015000Y-48994286D01*
X53074334Y-48851429D01*
X53133667Y-48780000D01*
X53252334Y-48708571D01*
X53549000Y-48708571D01*
X53727000Y-48780000D01*
X54795001Y-49208571D02*
X54795001Y-50208571D01*
X54498334Y-48637143D02*
X54201667Y-49708571D01*
X54973001Y-49708571D01*
X55625668Y-49351429D02*
X55507001Y-49280000D01*
X55447668Y-49208571D01*
X55388334Y-49065714D01*
X55388334Y-48994286D01*
X55447668Y-48851429D01*
X55507001Y-48780000D01*
X55625668Y-48708571D01*
X55863001Y-48708571D01*
X55981668Y-48780000D01*
X56041001Y-48851429D01*
X56100334Y-48994286D01*
X56100334Y-49065714D01*
X56041001Y-49208571D01*
X55981668Y-49280000D01*
X55863001Y-49351429D01*
X55625668Y-49351429D01*
X55507001Y-49422857D01*
X55447668Y-49494286D01*
X55388334Y-49637143D01*
X55388334Y-49922857D01*
X55447668Y-50065714D01*
X55507001Y-50137143D01*
X55625668Y-50208571D01*
X55863001Y-50208571D01*
X55981668Y-50137143D01*
X56041001Y-50065714D01*
X56100334Y-49922857D01*
X56100334Y-49637143D01*
X56041001Y-49494286D01*
X55981668Y-49422857D01*
X55863001Y-49351429D01*
X57227668Y-48708571D02*
X56634335Y-48708571D01*
X56575001Y-49422857D01*
X56634335Y-49351429D01*
X56753001Y-49280000D01*
X57049668Y-49280000D01*
X57168335Y-49351429D01*
X57227668Y-49422857D01*
X57287001Y-49565714D01*
X57287001Y-49922857D01*
X57227668Y-50065714D01*
X57168335Y-50137143D01*
X57049668Y-50208571D01*
X56753001Y-50208571D01*
X56634335Y-50137143D01*
X56575001Y-50065714D01*
X58711002Y-48637143D02*
X57643002Y-50565714D01*
X59126335Y-50208571D02*
X59126335Y-48708571D01*
X59423001Y-48708571D01*
X59601001Y-48780000D01*
X59719668Y-48922857D01*
X59779001Y-49065714D01*
X59838335Y-49351429D01*
X59838335Y-49565714D01*
X59779001Y-49851429D01*
X59719668Y-49994286D01*
X59601001Y-50137143D01*
X59423001Y-50208571D01*
X59126335Y-50208571D01*
X60372335Y-50208571D02*
X60372335Y-48708571D01*
X60787668Y-49780000D01*
X61203001Y-48708571D01*
X61203001Y-50208571D01*
X61677668Y-48708571D02*
X62508335Y-50208571D01*
X62508335Y-48708571D02*
X61677668Y-50208571D01*
X63932335Y-50208571D02*
X63932335Y-48708571D01*
X64229001Y-48708571D01*
X64407001Y-48780000D01*
X64525668Y-48922857D01*
X64585001Y-49065714D01*
X64644335Y-49351429D01*
X64644335Y-49565714D01*
X64585001Y-49851429D01*
X64525668Y-49994286D01*
X64407001Y-50137143D01*
X64229001Y-50208571D01*
X63932335Y-50208571D01*
X65712335Y-50208571D02*
X65712335Y-49422857D01*
X65653001Y-49280000D01*
X65534335Y-49208571D01*
X65297001Y-49208571D01*
X65178335Y-49280000D01*
X65712335Y-50137143D02*
X65593668Y-50208571D01*
X65297001Y-50208571D01*
X65178335Y-50137143D01*
X65119001Y-49994286D01*
X65119001Y-49851429D01*
X65178335Y-49708571D01*
X65297001Y-49637143D01*
X65593668Y-49637143D01*
X65712335Y-49565714D01*
X66127668Y-49208571D02*
X66602334Y-49208571D01*
X66305668Y-48708571D02*
X66305668Y-49994286D01*
X66365001Y-50137143D01*
X66483668Y-50208571D01*
X66602334Y-50208571D01*
X67551668Y-50208571D02*
X67551668Y-49422857D01*
X67492334Y-49280000D01*
X67373668Y-49208571D01*
X67136334Y-49208571D01*
X67017668Y-49280000D01*
X67551668Y-50137143D02*
X67433001Y-50208571D01*
X67136334Y-50208571D01*
X67017668Y-50137143D01*
X66958334Y-49994286D01*
X66958334Y-49851429D01*
X67017668Y-49708571D01*
X67136334Y-49637143D01*
X67433001Y-49637143D01*
X67551668Y-49565714D01*
X92666002Y-55128571D02*
X92666002Y-56342857D01*
X92725335Y-56485714D01*
X92784668Y-56557143D01*
X92903335Y-56628571D01*
X93140668Y-56628571D01*
X93259335Y-56557143D01*
X93318668Y-56485714D01*
X93378002Y-56342857D01*
X93378002Y-55128571D01*
X93971335Y-55628571D02*
X93971335Y-56628571D01*
X93971335Y-55771429D02*
X94030668Y-55700000D01*
X94149335Y-55628571D01*
X94327335Y-55628571D01*
X94446001Y-55700000D01*
X94505335Y-55842857D01*
X94505335Y-56628571D01*
X95098668Y-56628571D02*
X95098668Y-55628571D01*
X95098668Y-55128571D02*
X95039334Y-55200000D01*
X95098668Y-55271429D01*
X95158001Y-55200000D01*
X95098668Y-55128571D01*
X95098668Y-55271429D01*
X95573334Y-55628571D02*
X95870001Y-56628571D01*
X96166667Y-55628571D01*
X97116000Y-56557143D02*
X96997334Y-56628571D01*
X96760000Y-56628571D01*
X96641334Y-56557143D01*
X96582000Y-56414286D01*
X96582000Y-55842857D01*
X96641334Y-55700000D01*
X96760000Y-55628571D01*
X96997334Y-55628571D01*
X97116000Y-55700000D01*
X97175334Y-55842857D01*
X97175334Y-55985714D01*
X96582000Y-56128571D01*
X97709334Y-56628571D02*
X97709334Y-55628571D01*
X97709334Y-55914286D02*
X97768667Y-55771429D01*
X97828000Y-55700000D01*
X97946667Y-55628571D01*
X98065334Y-55628571D01*
X98421333Y-56557143D02*
X98540000Y-56628571D01*
X98777333Y-56628571D01*
X98896000Y-56557143D01*
X98955333Y-56414286D01*
X98955333Y-56342857D01*
X98896000Y-56200000D01*
X98777333Y-56128571D01*
X98599333Y-56128571D01*
X98480667Y-56057143D01*
X98421333Y-55914286D01*
X98421333Y-55842857D01*
X98480667Y-55700000D01*
X98599333Y-55628571D01*
X98777333Y-55628571D01*
X98896000Y-55700000D01*
X100023334Y-56628571D02*
X100023334Y-55842857D01*
X99964000Y-55700000D01*
X99845334Y-55628571D01*
X99608000Y-55628571D01*
X99489334Y-55700000D01*
X100023334Y-56557143D02*
X99904667Y-56628571D01*
X99608000Y-56628571D01*
X99489334Y-56557143D01*
X99430000Y-56414286D01*
X99430000Y-56271429D01*
X99489334Y-56128571D01*
X99608000Y-56057143D01*
X99904667Y-56057143D01*
X100023334Y-55985714D01*
X100794667Y-56628571D02*
X100676000Y-56557143D01*
X100616667Y-56414286D01*
X100616667Y-55128571D01*
X102930667Y-56628571D02*
X102515333Y-55914286D01*
X102218667Y-56628571D02*
X102218667Y-55128571D01*
X102693333Y-55128571D01*
X102812000Y-55200000D01*
X102871333Y-55271429D01*
X102930667Y-55414286D01*
X102930667Y-55628571D01*
X102871333Y-55771429D01*
X102812000Y-55842857D01*
X102693333Y-55914286D01*
X102218667Y-55914286D01*
X103405333Y-56557143D02*
X103583333Y-56628571D01*
X103880000Y-56628571D01*
X103998667Y-56557143D01*
X104058000Y-56485714D01*
X104117333Y-56342857D01*
X104117333Y-56200000D01*
X104058000Y-56057143D01*
X103998667Y-55985714D01*
X103880000Y-55914286D01*
X103642667Y-55842857D01*
X103524000Y-55771429D01*
X103464667Y-55700000D01*
X103405333Y-55557143D01*
X103405333Y-55414286D01*
X103464667Y-55271429D01*
X103524000Y-55200000D01*
X103642667Y-55128571D01*
X103939333Y-55128571D01*
X104117333Y-55200000D01*
X104651334Y-56057143D02*
X105600667Y-56057143D01*
X106728001Y-55628571D02*
X106728001Y-56628571D01*
X106431334Y-55057143D02*
X106134667Y-56128571D01*
X106906001Y-56128571D01*
X107558668Y-55771429D02*
X107440001Y-55700000D01*
X107380668Y-55628571D01*
X107321334Y-55485714D01*
X107321334Y-55414286D01*
X107380668Y-55271429D01*
X107440001Y-55200000D01*
X107558668Y-55128571D01*
X107796001Y-55128571D01*
X107914668Y-55200000D01*
X107974001Y-55271429D01*
X108033334Y-55414286D01*
X108033334Y-55485714D01*
X107974001Y-55628571D01*
X107914668Y-55700000D01*
X107796001Y-55771429D01*
X107558668Y-55771429D01*
X107440001Y-55842857D01*
X107380668Y-55914286D01*
X107321334Y-56057143D01*
X107321334Y-56342857D01*
X107380668Y-56485714D01*
X107440001Y-56557143D01*
X107558668Y-56628571D01*
X107796001Y-56628571D01*
X107914668Y-56557143D01*
X107974001Y-56485714D01*
X108033334Y-56342857D01*
X108033334Y-56057143D01*
X107974001Y-55914286D01*
X107914668Y-55842857D01*
X107796001Y-55771429D01*
X109160668Y-55128571D02*
X108567335Y-55128571D01*
X108508001Y-55842857D01*
X108567335Y-55771429D01*
X108686001Y-55700000D01*
X108982668Y-55700000D01*
X109101335Y-55771429D01*
X109160668Y-55842857D01*
X109220001Y-55985714D01*
X109220001Y-56342857D01*
X109160668Y-56485714D01*
X109101335Y-56557143D01*
X108982668Y-56628571D01*
X108686001Y-56628571D01*
X108567335Y-56557143D01*
X108508001Y-56485714D01*
X110644002Y-55057143D02*
X109576002Y-56985714D01*
X111059335Y-56628571D02*
X111059335Y-55128571D01*
X111356001Y-55128571D01*
X111534001Y-55200000D01*
X111652668Y-55342857D01*
X111712001Y-55485714D01*
X111771335Y-55771429D01*
X111771335Y-55985714D01*
X111712001Y-56271429D01*
X111652668Y-56414286D01*
X111534001Y-56557143D01*
X111356001Y-56628571D01*
X111059335Y-56628571D01*
X112305335Y-56628571D02*
X112305335Y-55128571D01*
X112720668Y-56200000D01*
X113136001Y-55128571D01*
X113136001Y-56628571D01*
X113610668Y-55128571D02*
X114441335Y-56628571D01*
X114441335Y-55128571D02*
X113610668Y-56628571D01*
X115687335Y-55128571D02*
X116399335Y-55128571D01*
X116043335Y-56628571D02*
X116043335Y-55128571D01*
X116814668Y-56628571D02*
X116814668Y-55628571D01*
X116814668Y-55914286D02*
X116874001Y-55771429D01*
X116933334Y-55700000D01*
X117052001Y-55628571D01*
X117170668Y-55628571D01*
X118120001Y-56628571D02*
X118120001Y-55842857D01*
X118060667Y-55700000D01*
X117942001Y-55628571D01*
X117704667Y-55628571D01*
X117586001Y-55700000D01*
X118120001Y-56557143D02*
X118001334Y-56628571D01*
X117704667Y-56628571D01*
X117586001Y-56557143D01*
X117526667Y-56414286D01*
X117526667Y-56271429D01*
X117586001Y-56128571D01*
X117704667Y-56057143D01*
X118001334Y-56057143D01*
X118120001Y-55985714D01*
X118713334Y-55628571D02*
X118713334Y-56628571D01*
X118713334Y-55771429D02*
X118772667Y-55700000D01*
X118891334Y-55628571D01*
X119069334Y-55628571D01*
X119188000Y-55700000D01*
X119247334Y-55842857D01*
X119247334Y-56628571D01*
X119781333Y-56557143D02*
X119900000Y-56628571D01*
X120137333Y-56628571D01*
X120256000Y-56557143D01*
X120315333Y-56414286D01*
X120315333Y-56342857D01*
X120256000Y-56200000D01*
X120137333Y-56128571D01*
X119959333Y-56128571D01*
X119840667Y-56057143D01*
X119781333Y-55914286D01*
X119781333Y-55842857D01*
X119840667Y-55700000D01*
X119959333Y-55628571D01*
X120137333Y-55628571D01*
X120256000Y-55700000D01*
X121383334Y-56557143D02*
X121264667Y-56628571D01*
X121027334Y-56628571D01*
X120908667Y-56557143D01*
X120849334Y-56485714D01*
X120790000Y-56342857D01*
X120790000Y-55914286D01*
X120849334Y-55771429D01*
X120908667Y-55700000D01*
X121027334Y-55628571D01*
X121264667Y-55628571D01*
X121383334Y-55700000D01*
X122392000Y-56557143D02*
X122273334Y-56628571D01*
X122036000Y-56628571D01*
X121917334Y-56557143D01*
X121858000Y-56414286D01*
X121858000Y-55842857D01*
X121917334Y-55700000D01*
X122036000Y-55628571D01*
X122273334Y-55628571D01*
X122392000Y-55700000D01*
X122451334Y-55842857D01*
X122451334Y-55985714D01*
X121858000Y-56128571D01*
X122985334Y-56628571D02*
X122985334Y-55628571D01*
X122985334Y-55128571D02*
X122926000Y-55200000D01*
X122985334Y-55271429D01*
X123044667Y-55200000D01*
X122985334Y-55128571D01*
X122985334Y-55271429D01*
X123460000Y-55628571D02*
X123756667Y-56628571D01*
X124053333Y-55628571D01*
X125002666Y-56557143D02*
X124884000Y-56628571D01*
X124646666Y-56628571D01*
X124528000Y-56557143D01*
X124468666Y-56414286D01*
X124468666Y-55842857D01*
X124528000Y-55700000D01*
X124646666Y-55628571D01*
X124884000Y-55628571D01*
X125002666Y-55700000D01*
X125062000Y-55842857D01*
X125062000Y-55985714D01*
X124468666Y-56128571D01*
X125596000Y-56628571D02*
X125596000Y-55628571D01*
X125596000Y-55914286D02*
X125655333Y-55771429D01*
X125714666Y-55700000D01*
X125833333Y-55628571D01*
X125952000Y-55628571D01*
X93912003Y-59028571D02*
X93912003Y-57528571D01*
X94386669Y-57528571D01*
X94505336Y-57600000D01*
X94564669Y-57671429D01*
X94624003Y-57814286D01*
X94624003Y-58028571D01*
X94564669Y-58171429D01*
X94505336Y-58242857D01*
X94386669Y-58314286D01*
X93912003Y-58314286D01*
X95870003Y-58885714D02*
X95810669Y-58957143D01*
X95632669Y-59028571D01*
X95514003Y-59028571D01*
X95336003Y-58957143D01*
X95217336Y-58814286D01*
X95158003Y-58671429D01*
X95098669Y-58385714D01*
X95098669Y-58171429D01*
X95158003Y-57885714D01*
X95217336Y-57742857D01*
X95336003Y-57600000D01*
X95514003Y-57528571D01*
X95632669Y-57528571D01*
X95810669Y-57600000D01*
X95870003Y-57671429D01*
X96819336Y-58242857D02*
X96997336Y-58314286D01*
X97056669Y-58385714D01*
X97116003Y-58528571D01*
X97116003Y-58742857D01*
X97056669Y-58885714D01*
X96997336Y-58957143D01*
X96878669Y-59028571D01*
X96404003Y-59028571D01*
X96404003Y-57528571D01*
X96819336Y-57528571D01*
X96938003Y-57600000D01*
X96997336Y-57671429D01*
X97056669Y-57814286D01*
X97056669Y-57957143D01*
X96997336Y-58100000D01*
X96938003Y-58171429D01*
X96819336Y-58242857D01*
X96404003Y-58242857D01*
X98599336Y-59028571D02*
X98599336Y-58028571D01*
X98599336Y-58314286D02*
X98658669Y-58171429D01*
X98718002Y-58100000D01*
X98836669Y-58028571D01*
X98955336Y-58028571D01*
X99845335Y-58957143D02*
X99726669Y-59028571D01*
X99489335Y-59028571D01*
X99370669Y-58957143D01*
X99311335Y-58814286D01*
X99311335Y-58242857D01*
X99370669Y-58100000D01*
X99489335Y-58028571D01*
X99726669Y-58028571D01*
X99845335Y-58100000D01*
X99904669Y-58242857D01*
X99904669Y-58385714D01*
X99311335Y-58528571D01*
X100320002Y-58028571D02*
X100616669Y-59028571D01*
X100913335Y-58028571D01*
X101388002Y-58885714D02*
X101447335Y-58957143D01*
X101388002Y-59028571D01*
X101328668Y-58957143D01*
X101388002Y-58885714D01*
X101388002Y-59028571D01*
X103168001Y-57528571D02*
X103286668Y-57528571D01*
X103405334Y-57600000D01*
X103464668Y-57671429D01*
X103524001Y-57814286D01*
X103583334Y-58100000D01*
X103583334Y-58457143D01*
X103524001Y-58742857D01*
X103464668Y-58885714D01*
X103405334Y-58957143D01*
X103286668Y-59028571D01*
X103168001Y-59028571D01*
X103049334Y-58957143D01*
X102990001Y-58885714D01*
X102930668Y-58742857D01*
X102871334Y-58457143D01*
X102871334Y-58100000D01*
X102930668Y-57814286D01*
X102990001Y-57671429D01*
X103049334Y-57600000D01*
X103168001Y-57528571D01*
X104117335Y-58885714D02*
X104176668Y-58957143D01*
X104117335Y-59028571D01*
X104058001Y-58957143D01*
X104117335Y-58885714D01*
X104117335Y-59028571D01*
X104651334Y-57671429D02*
X104710668Y-57600000D01*
X104829334Y-57528571D01*
X105126001Y-57528571D01*
X105244668Y-57600000D01*
X105304001Y-57671429D01*
X105363334Y-57814286D01*
X105363334Y-57957143D01*
X105304001Y-58171429D01*
X104592001Y-59028571D01*
X105363334Y-59028571D01*
X107796001Y-58457143D02*
X108745334Y-58457143D01*
X111237334Y-59028571D02*
X111237334Y-57528571D01*
X111949334Y-59028571D01*
X111949334Y-57528571D01*
X113076667Y-59028571D02*
X113076667Y-58242857D01*
X113017333Y-58100000D01*
X112898667Y-58028571D01*
X112661333Y-58028571D01*
X112542667Y-58100000D01*
X113076667Y-58957143D02*
X112958000Y-59028571D01*
X112661333Y-59028571D01*
X112542667Y-58957143D01*
X112483333Y-58814286D01*
X112483333Y-58671429D01*
X112542667Y-58528571D01*
X112661333Y-58457143D01*
X112958000Y-58457143D01*
X113076667Y-58385714D01*
X113610666Y-58957143D02*
X113729333Y-59028571D01*
X113966666Y-59028571D01*
X114085333Y-58957143D01*
X114144666Y-58814286D01*
X114144666Y-58742857D01*
X114085333Y-58600000D01*
X113966666Y-58528571D01*
X113788666Y-58528571D01*
X113670000Y-58457143D01*
X113610666Y-58314286D01*
X113610666Y-58242857D01*
X113670000Y-58100000D01*
X113788666Y-58028571D01*
X113966666Y-58028571D01*
X114085333Y-58100000D01*
X114678667Y-59028571D02*
X114678667Y-57528571D01*
X115212667Y-59028571D02*
X115212667Y-58242857D01*
X115153333Y-58100000D01*
X115034667Y-58028571D01*
X114856667Y-58028571D01*
X114738000Y-58100000D01*
X114678667Y-58171429D01*
X116755333Y-59028571D02*
X116755333Y-57528571D01*
X117467333Y-59028571D02*
X116933333Y-58171429D01*
X117467333Y-57528571D02*
X116755333Y-58385714D01*
X118535333Y-59028571D02*
X118535333Y-58242857D01*
X118475999Y-58100000D01*
X118357333Y-58028571D01*
X118119999Y-58028571D01*
X118001333Y-58100000D01*
X118535333Y-58957143D02*
X118416666Y-59028571D01*
X118119999Y-59028571D01*
X118001333Y-58957143D01*
X117941999Y-58814286D01*
X117941999Y-58671429D01*
X118001333Y-58528571D01*
X118119999Y-58457143D01*
X118416666Y-58457143D01*
X118535333Y-58385714D01*
X119128666Y-59028571D02*
X119128666Y-58028571D01*
X119128666Y-58171429D02*
X119187999Y-58100000D01*
X119306666Y-58028571D01*
X119484666Y-58028571D01*
X119603332Y-58100000D01*
X119662666Y-58242857D01*
X119662666Y-59028571D01*
X119662666Y-58242857D02*
X119721999Y-58100000D01*
X119840666Y-58028571D01*
X120018666Y-58028571D01*
X120137332Y-58100000D01*
X120196666Y-58242857D01*
X120196666Y-59028571D01*
X120789999Y-59028571D02*
X120789999Y-58028571D01*
X120789999Y-57528571D02*
X120730665Y-57600000D01*
X120789999Y-57671429D01*
X120849332Y-57600000D01*
X120789999Y-57528571D01*
X120789999Y-57671429D01*
X121383332Y-58028571D02*
X121383332Y-59028571D01*
X121383332Y-58171429D02*
X121442665Y-58100000D01*
X121561332Y-58028571D01*
X121739332Y-58028571D01*
X121857998Y-58100000D01*
X121917332Y-58242857D01*
X121917332Y-59028571D01*
X122451331Y-58957143D02*
X122569998Y-59028571D01*
X122807331Y-59028571D01*
X122925998Y-58957143D01*
X122985331Y-58814286D01*
X122985331Y-58742857D01*
X122925998Y-58600000D01*
X122807331Y-58528571D01*
X122629331Y-58528571D01*
X122510665Y-58457143D01*
X122451331Y-58314286D01*
X122451331Y-58242857D01*
X122510665Y-58100000D01*
X122629331Y-58028571D01*
X122807331Y-58028571D01*
X122925998Y-58100000D01*
X123519332Y-59028571D02*
X123519332Y-57528571D01*
X123637998Y-58457143D02*
X123993998Y-59028571D01*
X123993998Y-58028571D02*
X123519332Y-58600000D01*
X124527999Y-59028571D02*
X124527999Y-58028571D01*
X124527999Y-57528571D02*
X124468665Y-57600000D01*
X124527999Y-57671429D01*
X124587332Y-57600000D01*
X124527999Y-57528571D01*
X124527999Y-57671429D01*
D12*
X51816000Y-31115000D02*
X51816000Y-46355000D01*
X51816000Y-46355000D02*
X69850000Y-46355000D01*
X69850000Y-46355000D02*
X69850000Y-31115000D01*
X69850000Y-31115000D02*
X51816000Y-31115000D01*
D13*
X66040000Y-52070000D02*
X65532000Y-52070000D01*
X58420000Y-52070000D02*
X58928000Y-52070000D01*
X58928000Y-52070000D02*
X58928000Y-53086000D01*
X58928000Y-53086000D02*
X65532000Y-53086000D01*
X65532000Y-53086000D02*
X65532000Y-51054000D01*
X65532000Y-51054000D02*
X58928000Y-51054000D01*
X58928000Y-51054000D02*
X58928000Y-52070000D01*
X65532000Y-52578000D02*
X65024000Y-53086000D01*
X62230000Y-20320000D02*
X62230000Y-20828000D01*
X62230000Y-27940000D02*
X62230000Y-27432000D01*
X62230000Y-27432000D02*
X63246000Y-27432000D01*
X63246000Y-27432000D02*
X63246000Y-20828000D01*
X63246000Y-20828000D02*
X61214000Y-20828000D01*
X61214000Y-20828000D02*
X61214000Y-27432000D01*
X61214000Y-27432000D02*
X62230000Y-27432000D01*
X62738000Y-20828000D02*
X63246000Y-21336000D01*
X101600000Y-35560000D02*
X101092000Y-35560000D01*
X93980000Y-35560000D02*
X94488000Y-35560000D01*
X94488000Y-35560000D02*
X94488000Y-36576000D01*
X94488000Y-36576000D02*
X101092000Y-36576000D01*
X101092000Y-36576000D02*
X101092000Y-34544000D01*
X101092000Y-34544000D02*
X94488000Y-34544000D01*
X94488000Y-34544000D02*
X94488000Y-35560000D01*
X101092000Y-36068000D02*
X100584000Y-36576000D01*
X101600000Y-30480000D02*
X101092000Y-30480000D01*
X93980000Y-30480000D02*
X94488000Y-30480000D01*
X94488000Y-30480000D02*
X94488000Y-31496000D01*
X94488000Y-31496000D02*
X101092000Y-31496000D01*
X101092000Y-31496000D02*
X101092000Y-29464000D01*
X101092000Y-29464000D02*
X94488000Y-29464000D01*
X94488000Y-29464000D02*
X94488000Y-30480000D01*
X101092000Y-30988000D02*
X100584000Y-31496000D01*
X93980000Y-25400000D02*
X94488000Y-25400000D01*
X101600000Y-25400000D02*
X101092000Y-25400000D01*
X101092000Y-25400000D02*
X101092000Y-24384000D01*
X101092000Y-24384000D02*
X94488000Y-24384000D01*
X94488000Y-24384000D02*
X94488000Y-26416000D01*
X94488000Y-26416000D02*
X101092000Y-26416000D01*
X101092000Y-26416000D02*
X101092000Y-25400000D01*
X94488000Y-24892000D02*
X94996000Y-24384000D01*
X69850000Y-27940000D02*
X69850000Y-27432000D01*
X69850000Y-20320000D02*
X69850000Y-20828000D01*
X69850000Y-20828000D02*
X68834000Y-20828000D01*
X68834000Y-20828000D02*
X68834000Y-27432000D01*
X68834000Y-27432000D02*
X70866000Y-27432000D01*
X70866000Y-27432000D02*
X70866000Y-20828000D01*
X70866000Y-20828000D02*
X69850000Y-20828000D01*
X69342000Y-27432000D02*
X68834000Y-26924000D01*
X66040000Y-20320000D02*
X66040000Y-20828000D01*
X66040000Y-27940000D02*
X66040000Y-27432000D01*
X66040000Y-27432000D02*
X67056000Y-27432000D01*
X67056000Y-27432000D02*
X67056000Y-20828000D01*
X67056000Y-20828000D02*
X65024000Y-20828000D01*
X65024000Y-20828000D02*
X65024000Y-27432000D01*
X65024000Y-27432000D02*
X66040000Y-27432000D01*
X66548000Y-20828000D02*
X67056000Y-21336000D01*
X127000000Y-40640000D02*
X126492000Y-40640000D01*
X119380000Y-40640000D02*
X119888000Y-40640000D01*
X119888000Y-40640000D02*
X119888000Y-41656000D01*
X119888000Y-41656000D02*
X126492000Y-41656000D01*
X126492000Y-41656000D02*
X126492000Y-39624000D01*
X126492000Y-39624000D02*
X119888000Y-39624000D01*
X119888000Y-39624000D02*
X119888000Y-40640000D01*
X126492000Y-41148000D02*
X125984000Y-41656000D01*
X69850000Y-49530000D02*
X69850000Y-50038000D01*
X69850000Y-57150000D02*
X69850000Y-56642000D01*
X69850000Y-56642000D02*
X70866000Y-56642000D01*
X70866000Y-56642000D02*
X70866000Y-50038000D01*
X70866000Y-50038000D02*
X68834000Y-50038000D01*
X68834000Y-50038000D02*
X68834000Y-56642000D01*
X68834000Y-56642000D02*
X69850000Y-56642000D01*
X70358000Y-50038000D02*
X70866000Y-50546000D01*
D14*
X129540000Y-52070000D02*
X132080000Y-52070000D01*
X132080000Y-39370000D02*
X129540000Y-39370000D01*
X129540000Y-52070000D02*
X129540000Y-39370000D01*
X132080000Y-39370000D02*
X132080000Y-52070000D01*
D15*
X132080000Y-33020000D02*
X129540000Y-33020000D01*
X129540000Y-33020000D02*
X129540000Y-25400000D01*
X129540000Y-25400000D02*
X132080000Y-25400000D01*
X132080000Y-25400000D02*
X132080000Y-33020000D01*
X129540000Y-30480000D02*
X132080000Y-30480000D01*
D16*
X80010000Y-58420000D02*
X80010000Y-58420000D01*
X80010000Y-58420000D02*
X80010000Y-57150000D01*
X80010000Y-57150000D02*
X82550000Y-57150000D01*
X82550000Y-57150000D02*
X82550000Y-58420000D01*
X74930000Y-58420000D02*
X74930000Y-20320000D01*
X74930000Y-20320000D02*
X87630000Y-20320000D01*
X87630000Y-20320000D02*
X87630000Y-58420000D01*
X87630000Y-58420000D02*
X74930000Y-58420000D01*
X121920000Y-50800000D02*
X120650000Y-50800000D01*
X120650000Y-50800000D02*
X120650000Y-48260000D01*
X120650000Y-48260000D02*
X121920000Y-48260000D01*
X121920000Y-52070000D02*
X93980000Y-52070000D01*
X93980000Y-52070000D02*
X93980000Y-46990000D01*
X93980000Y-46990000D02*
X121920000Y-46990000D01*
X121920000Y-46990000D02*
X121920000Y-52070000D01*
X111760000Y-20320000D02*
X111760000Y-40640000D01*
X106680000Y-40640000D02*
X106680000Y-20320000D01*
X106680000Y-20320000D02*
X111760000Y-20320000D01*
X110490000Y-20320000D02*
X110490000Y-21590000D01*
X110490000Y-21590000D02*
X107950000Y-21590000D01*
X107950000Y-21590000D02*
X107950000Y-20320000D01*
X111760000Y-40640000D02*
X106680000Y-40640000D01*
D14*
X120650000Y-22225000D02*
X120650000Y-22225000D01*
X120650000Y-22225000D02*
X120650000Y-22225000D01*
X120650000Y-22225000D02*
X120650000Y-22225000D01*
X120650000Y-22225000D02*
X120650000Y-31750000D01*
X120650000Y-31750000D02*
X118110000Y-31750000D01*
X118110000Y-31750000D02*
X118110000Y-22225000D01*
X118110000Y-22225000D02*
X120650000Y-22225000D01*
X120015000Y-22225000D02*
X120015000Y-22225000D01*
X120015000Y-22225000D02*
X120015000Y-21590000D01*
X120015000Y-21590000D02*
X118745000Y-21590000D01*
X118745000Y-21590000D02*
X118745000Y-22225000D01*
X119380000Y-20320000D02*
X119380000Y-20320000D01*
X119380000Y-20320000D02*
X119380000Y-21590000D01*
X119380000Y-21590000D02*
X119380000Y-21590000D01*
X119380000Y-21590000D02*
X119380000Y-21590000D01*
X119380000Y-31750000D02*
X119380000Y-31750000D01*
X119380000Y-31750000D02*
X119380000Y-31750000D01*
X119380000Y-31750000D02*
X119380000Y-33020000D01*
X119380000Y-33020000D02*
X119380000Y-33020000D01*
X119380000Y-33020000D02*
X119380000Y-33020000D01*
X119380000Y-33020000D02*
X119380000Y-33020000D01*
X126746000Y-25654000D02*
X126746000Y-32766000D01*
X126746000Y-32766000D02*
X124714000Y-32766000D01*
X124714000Y-32766000D02*
X124714000Y-25654000D01*
X124714000Y-25654000D02*
X126746000Y-25654000D01*
X126238000Y-25654000D02*
X126746000Y-26162000D01*
D16*
X133096000Y-21590000D02*
G75*
G03X133096000Y-21590000I-2286000J0D01*
G01*
X133096000Y-55880000D02*
G75*
G03X133096000Y-55880000I-2286000J0D01*
G01*
X58166000Y-55880000D02*
G75*
G03X58166000Y-55880000I-2286000J0D01*
G01*
X58166000Y-21590000D02*
G75*
G03X58166000Y-21590000I-2286000J0D01*
G01*
D14*
X54029429Y-39497000D02*
X55118000Y-39497000D01*
X55335714Y-39569572D01*
X55480857Y-39714715D01*
X55553429Y-39932429D01*
X55553429Y-40077572D01*
X55553429Y-37973000D02*
X55553429Y-38843857D01*
X55553429Y-38408429D02*
X54029429Y-38408429D01*
X54247143Y-38553572D01*
X54392286Y-38698714D01*
X54464857Y-38843857D01*
D13*
X60244325Y-39901828D02*
X59767772Y-40235415D01*
X60244325Y-40473691D02*
X59243565Y-40473691D01*
X59243565Y-40092449D01*
X59291220Y-39997138D01*
X59338875Y-39949483D01*
X59434186Y-39901828D01*
X59577151Y-39901828D01*
X59672462Y-39949483D01*
X59720117Y-39997138D01*
X59767772Y-40092449D01*
X59767772Y-40473691D01*
X59243565Y-39186999D02*
X59958393Y-39186999D01*
X60101359Y-39234655D01*
X60196670Y-39329965D01*
X60244325Y-39472931D01*
X60244325Y-39568241D01*
X59577151Y-38281550D02*
X60244325Y-38281550D01*
X59195910Y-38519826D02*
X59910738Y-38758102D01*
X59910738Y-38138584D01*
X59243565Y-37280789D02*
X59243565Y-37757342D01*
X59720117Y-37804997D01*
X59672462Y-37757342D01*
X59624807Y-37662031D01*
X59624807Y-37423755D01*
X59672462Y-37328445D01*
X59720117Y-37280789D01*
X59815428Y-37233134D01*
X60053704Y-37233134D01*
X60149014Y-37280789D01*
X60196670Y-37328445D01*
X60244325Y-37423755D01*
X60244325Y-37662031D01*
X60196670Y-37757342D01*
X60149014Y-37804997D01*
X61383333Y-52574976D02*
X60657619Y-52574976D01*
X61020476Y-52574976D02*
X61020476Y-51177976D01*
X60899524Y-51377548D01*
X60778571Y-51510595D01*
X60657619Y-51577119D01*
X62169524Y-51177976D02*
X62290476Y-51177976D01*
X62411428Y-51244500D01*
X62471905Y-51311024D01*
X62532381Y-51444071D01*
X62592857Y-51710167D01*
X62592857Y-52042786D01*
X62532381Y-52308881D01*
X62471905Y-52441929D01*
X62411428Y-52508452D01*
X62290476Y-52574976D01*
X62169524Y-52574976D01*
X62048571Y-52508452D01*
X61988095Y-52441929D01*
X61927619Y-52308881D01*
X61867143Y-52042786D01*
X61867143Y-51710167D01*
X61927619Y-51444071D01*
X61988095Y-51311024D01*
X62048571Y-51244500D01*
X62169524Y-51177976D01*
X63379048Y-51177976D02*
X63500000Y-51177976D01*
X63620952Y-51244500D01*
X63681429Y-51311024D01*
X63741905Y-51444071D01*
X63802381Y-51710167D01*
X63802381Y-52042786D01*
X63741905Y-52308881D01*
X63681429Y-52441929D01*
X63620952Y-52508452D01*
X63500000Y-52574976D01*
X63379048Y-52574976D01*
X63258095Y-52508452D01*
X63197619Y-52441929D01*
X63137143Y-52308881D01*
X63076667Y-52042786D01*
X63076667Y-51710167D01*
X63137143Y-51444071D01*
X63197619Y-51311024D01*
X63258095Y-51244500D01*
X63379048Y-51177976D01*
X62734976Y-24976667D02*
X62734976Y-25702381D01*
X62734976Y-25339524D02*
X61337976Y-25339524D01*
X61537548Y-25460476D01*
X61670595Y-25581429D01*
X61737119Y-25702381D01*
X61471024Y-24492857D02*
X61404500Y-24432381D01*
X61337976Y-24311429D01*
X61337976Y-24009048D01*
X61404500Y-23888095D01*
X61471024Y-23827619D01*
X61604071Y-23767143D01*
X61737119Y-23767143D01*
X61936690Y-23827619D01*
X62734976Y-24553333D01*
X62734976Y-23767143D01*
X61337976Y-22980952D02*
X61337976Y-22860000D01*
X61404500Y-22739048D01*
X61471024Y-22678571D01*
X61604071Y-22618095D01*
X61870167Y-22557619D01*
X62202786Y-22557619D01*
X62468881Y-22618095D01*
X62601929Y-22678571D01*
X62668452Y-22739048D01*
X62734976Y-22860000D01*
X62734976Y-22980952D01*
X62668452Y-23101905D01*
X62601929Y-23162381D01*
X62468881Y-23222857D01*
X62202786Y-23283333D01*
X61870167Y-23283333D01*
X61604071Y-23222857D01*
X61471024Y-23162381D01*
X61404500Y-23101905D01*
X61337976Y-22980952D01*
X96217619Y-34801024D02*
X96278095Y-34734500D01*
X96399047Y-34667976D01*
X96701428Y-34667976D01*
X96822381Y-34734500D01*
X96882857Y-34801024D01*
X96943333Y-34934071D01*
X96943333Y-35067119D01*
X96882857Y-35266690D01*
X96157143Y-36064976D01*
X96943333Y-36064976D01*
X97729524Y-34667976D02*
X97850476Y-34667976D01*
X97971428Y-34734500D01*
X98031905Y-34801024D01*
X98092381Y-34934071D01*
X98152857Y-35200167D01*
X98152857Y-35532786D01*
X98092381Y-35798881D01*
X98031905Y-35931929D01*
X97971428Y-35998452D01*
X97850476Y-36064976D01*
X97729524Y-36064976D01*
X97608571Y-35998452D01*
X97548095Y-35931929D01*
X97487619Y-35798881D01*
X97427143Y-35532786D01*
X97427143Y-35200167D01*
X97487619Y-34934071D01*
X97548095Y-34801024D01*
X97608571Y-34734500D01*
X97729524Y-34667976D01*
X98939048Y-34667976D02*
X99060000Y-34667976D01*
X99180952Y-34734500D01*
X99241429Y-34801024D01*
X99301905Y-34934071D01*
X99362381Y-35200167D01*
X99362381Y-35532786D01*
X99301905Y-35798881D01*
X99241429Y-35931929D01*
X99180952Y-35998452D01*
X99060000Y-36064976D01*
X98939048Y-36064976D01*
X98818095Y-35998452D01*
X98757619Y-35931929D01*
X98697143Y-35798881D01*
X98636667Y-35532786D01*
X98636667Y-35200167D01*
X98697143Y-34934071D01*
X98757619Y-34801024D01*
X98818095Y-34734500D01*
X98939048Y-34667976D01*
X96217619Y-29721024D02*
X96278095Y-29654500D01*
X96399047Y-29587976D01*
X96701428Y-29587976D01*
X96822381Y-29654500D01*
X96882857Y-29721024D01*
X96943333Y-29854071D01*
X96943333Y-29987119D01*
X96882857Y-30186690D01*
X96157143Y-30984976D01*
X96943333Y-30984976D01*
X97729524Y-29587976D02*
X97850476Y-29587976D01*
X97971428Y-29654500D01*
X98031905Y-29721024D01*
X98092381Y-29854071D01*
X98152857Y-30120167D01*
X98152857Y-30452786D01*
X98092381Y-30718881D01*
X98031905Y-30851929D01*
X97971428Y-30918452D01*
X97850476Y-30984976D01*
X97729524Y-30984976D01*
X97608571Y-30918452D01*
X97548095Y-30851929D01*
X97487619Y-30718881D01*
X97427143Y-30452786D01*
X97427143Y-30120167D01*
X97487619Y-29854071D01*
X97548095Y-29721024D01*
X97608571Y-29654500D01*
X97729524Y-29587976D01*
X98939048Y-29587976D02*
X99060000Y-29587976D01*
X99180952Y-29654500D01*
X99241429Y-29721024D01*
X99301905Y-29854071D01*
X99362381Y-30120167D01*
X99362381Y-30452786D01*
X99301905Y-30718881D01*
X99241429Y-30851929D01*
X99180952Y-30918452D01*
X99060000Y-30984976D01*
X98939048Y-30984976D01*
X98818095Y-30918452D01*
X98757619Y-30851929D01*
X98697143Y-30718881D01*
X98636667Y-30452786D01*
X98636667Y-30120167D01*
X98697143Y-29854071D01*
X98757619Y-29721024D01*
X98818095Y-29654500D01*
X98939048Y-29587976D01*
X97517857Y-26158976D02*
X96792143Y-26158976D01*
X97155000Y-26158976D02*
X97155000Y-24761976D01*
X97034048Y-24961548D01*
X96913095Y-25094595D01*
X96792143Y-25161119D01*
X98062143Y-26158976D02*
X98062143Y-24761976D01*
X98787857Y-26158976D02*
X98243572Y-25360690D01*
X98787857Y-24761976D02*
X98062143Y-25560262D01*
X69345024Y-25702381D02*
X69278500Y-25641905D01*
X69211976Y-25520953D01*
X69211976Y-25218572D01*
X69278500Y-25097619D01*
X69345024Y-25037143D01*
X69478071Y-24976667D01*
X69611119Y-24976667D01*
X69810690Y-25037143D01*
X70608976Y-25762857D01*
X70608976Y-24976667D01*
X69211976Y-24190476D02*
X69211976Y-24069524D01*
X69278500Y-23948572D01*
X69345024Y-23888095D01*
X69478071Y-23827619D01*
X69744167Y-23767143D01*
X70076786Y-23767143D01*
X70342881Y-23827619D01*
X70475929Y-23888095D01*
X70542452Y-23948572D01*
X70608976Y-24069524D01*
X70608976Y-24190476D01*
X70542452Y-24311429D01*
X70475929Y-24371905D01*
X70342881Y-24432381D01*
X70076786Y-24492857D01*
X69744167Y-24492857D01*
X69478071Y-24432381D01*
X69345024Y-24371905D01*
X69278500Y-24311429D01*
X69211976Y-24190476D01*
X69211976Y-22980952D02*
X69211976Y-22860000D01*
X69278500Y-22739048D01*
X69345024Y-22678571D01*
X69478071Y-22618095D01*
X69744167Y-22557619D01*
X70076786Y-22557619D01*
X70342881Y-22618095D01*
X70475929Y-22678571D01*
X70542452Y-22739048D01*
X70608976Y-22860000D01*
X70608976Y-22980952D01*
X70542452Y-23101905D01*
X70475929Y-23162381D01*
X70342881Y-23222857D01*
X70076786Y-23283333D01*
X69744167Y-23283333D01*
X69478071Y-23222857D01*
X69345024Y-23162381D01*
X69278500Y-23101905D01*
X69211976Y-22980952D01*
X65613643Y-25430238D02*
X66544976Y-25430238D01*
X65081452Y-25732619D02*
X66079310Y-26035000D01*
X66079310Y-25248810D01*
X66411929Y-24765000D02*
X66478452Y-24704524D01*
X66544976Y-24765000D01*
X66478452Y-24825476D01*
X66411929Y-24765000D01*
X66544976Y-24765000D01*
X65147976Y-24281190D02*
X65147976Y-23495000D01*
X65680167Y-23918333D01*
X65680167Y-23736905D01*
X65746690Y-23615952D01*
X65813214Y-23555476D01*
X65946262Y-23495000D01*
X66278881Y-23495000D01*
X66411929Y-23555476D01*
X66478452Y-23615952D01*
X66544976Y-23736905D01*
X66544976Y-24099762D01*
X66478452Y-24220714D01*
X66411929Y-24281190D01*
X66544976Y-22950714D02*
X65147976Y-22950714D01*
X66544976Y-22225000D02*
X65746690Y-22769285D01*
X65147976Y-22225000D02*
X65946262Y-22950714D01*
X122313095Y-41144976D02*
X121587381Y-41144976D01*
X121950238Y-41144976D02*
X121950238Y-39747976D01*
X121829286Y-39947548D01*
X121708333Y-40080595D01*
X121587381Y-40147119D01*
X123099286Y-39747976D02*
X123220238Y-39747976D01*
X123341190Y-39814500D01*
X123401667Y-39881024D01*
X123462143Y-40014071D01*
X123522619Y-40280167D01*
X123522619Y-40612786D01*
X123462143Y-40878881D01*
X123401667Y-41011929D01*
X123341190Y-41078452D01*
X123220238Y-41144976D01*
X123099286Y-41144976D01*
X122978333Y-41078452D01*
X122917857Y-41011929D01*
X122857381Y-40878881D01*
X122796905Y-40612786D01*
X122796905Y-40280167D01*
X122857381Y-40014071D01*
X122917857Y-39881024D01*
X122978333Y-39814500D01*
X123099286Y-39747976D01*
X124066905Y-41144976D02*
X124066905Y-39747976D01*
X124792619Y-41144976D02*
X124248334Y-40346690D01*
X124792619Y-39747976D02*
X124066905Y-40546262D01*
X70354976Y-53612143D02*
X70354976Y-54337857D01*
X70354976Y-53975000D02*
X68957976Y-53975000D01*
X69157548Y-54095952D01*
X69290595Y-54216905D01*
X69357119Y-54337857D01*
X70354976Y-53067857D02*
X68957976Y-53067857D01*
X70354976Y-52342143D02*
X69556690Y-52886428D01*
X68957976Y-52342143D02*
X69756262Y-53067857D01*
X128729619Y-48937333D02*
X127713619Y-48937333D01*
X127713619Y-48695428D01*
X127762000Y-48550286D01*
X127858762Y-48453524D01*
X127955524Y-48405143D01*
X128149048Y-48356762D01*
X128294190Y-48356762D01*
X128487714Y-48405143D01*
X128584476Y-48453524D01*
X128681238Y-48550286D01*
X128729619Y-48695428D01*
X128729619Y-48937333D01*
X128439333Y-47969714D02*
X128439333Y-47485905D01*
X128729619Y-48066476D02*
X127713619Y-47727809D01*
X128729619Y-47389143D01*
X127713619Y-47195619D02*
X127713619Y-46615048D01*
X128729619Y-46905333D02*
X127713619Y-46905333D01*
X128439333Y-46324762D02*
X128439333Y-45840953D01*
X128729619Y-46421524D02*
X127713619Y-46082857D01*
X128729619Y-45744191D01*
X128729619Y-44631429D02*
X127713619Y-44631429D01*
X127665238Y-43421905D02*
X128971524Y-44292762D01*
X127713619Y-42889714D02*
X127713619Y-42696191D01*
X127762000Y-42599429D01*
X127858762Y-42502667D01*
X128052286Y-42454286D01*
X128390952Y-42454286D01*
X128584476Y-42502667D01*
X128681238Y-42599429D01*
X128729619Y-42696191D01*
X128729619Y-42889714D01*
X128681238Y-42986476D01*
X128584476Y-43083238D01*
X128390952Y-43131619D01*
X128052286Y-43131619D01*
X127858762Y-43083238D01*
X127762000Y-42986476D01*
X127713619Y-42889714D01*
D15*
X129110619Y-30310666D02*
X128094619Y-30310666D01*
X128094619Y-29923619D01*
X128143000Y-29826857D01*
X128191381Y-29778476D01*
X128288143Y-29730095D01*
X128433286Y-29730095D01*
X128530048Y-29778476D01*
X128578429Y-29826857D01*
X128626810Y-29923619D01*
X128626810Y-30310666D01*
X128094619Y-29391428D02*
X129110619Y-29149523D01*
X128384905Y-28956000D01*
X129110619Y-28762476D01*
X128094619Y-28520571D01*
X129110619Y-27552952D02*
X128626810Y-27891618D01*
X129110619Y-28133523D02*
X128094619Y-28133523D01*
X128094619Y-27746476D01*
X128143000Y-27649714D01*
X128191381Y-27601333D01*
X128288143Y-27552952D01*
X128433286Y-27552952D01*
X128530048Y-27601333D01*
X128578429Y-27649714D01*
X128626810Y-27746476D01*
X128626810Y-28133523D01*
D17*
X76496333Y-52940857D02*
X77935667Y-52940857D01*
X78105000Y-52886429D01*
X78189667Y-52832000D01*
X78274333Y-52723143D01*
X78274333Y-52505429D01*
X78189667Y-52396571D01*
X78105000Y-52342143D01*
X77935667Y-52287714D01*
X76496333Y-52287714D01*
X76496333Y-51852285D02*
X76496333Y-51144714D01*
X77173667Y-51525714D01*
X77173667Y-51362428D01*
X77258333Y-51253571D01*
X77343000Y-51199142D01*
X77512333Y-51144714D01*
X77935667Y-51144714D01*
X78105000Y-51199142D01*
X78189667Y-51253571D01*
X78274333Y-51362428D01*
X78274333Y-51689000D01*
X78189667Y-51797857D01*
X78105000Y-51852285D01*
D14*
X85894333Y-41571333D02*
X84116333Y-41571333D01*
X85386333Y-40978666D01*
X84116333Y-40385999D01*
X85894333Y-40385999D01*
X85386333Y-39623999D02*
X85386333Y-38777333D01*
X85894333Y-39793333D02*
X84116333Y-39200666D01*
X85894333Y-38607999D01*
X84116333Y-38184666D02*
X85894333Y-36999333D01*
X84116333Y-36999333D02*
X85894333Y-38184666D01*
X85894333Y-35390666D02*
X85894333Y-36406666D01*
X85894333Y-35898666D02*
X84116333Y-35898666D01*
X84370333Y-36068000D01*
X84539667Y-36237333D01*
X84624333Y-36406666D01*
X84709000Y-33866667D02*
X85894333Y-33866667D01*
X84031667Y-34290000D02*
X85301667Y-34713333D01*
X85301667Y-33612667D01*
X84878333Y-32681334D02*
X84793667Y-32850667D01*
X84709000Y-32935334D01*
X84539667Y-33020000D01*
X84455000Y-33020000D01*
X84285667Y-32935334D01*
X84201000Y-32850667D01*
X84116333Y-32681334D01*
X84116333Y-32342667D01*
X84201000Y-32173334D01*
X84285667Y-32088667D01*
X84455000Y-32004000D01*
X84539667Y-32004000D01*
X84709000Y-32088667D01*
X84793667Y-32173334D01*
X84878333Y-32342667D01*
X84878333Y-32681334D01*
X84963000Y-32850667D01*
X85047667Y-32935334D01*
X85217000Y-33020000D01*
X85555667Y-33020000D01*
X85725000Y-32935334D01*
X85809667Y-32850667D01*
X85894333Y-32681334D01*
X85894333Y-32342667D01*
X85809667Y-32173334D01*
X85725000Y-32088667D01*
X85555667Y-32004000D01*
X85217000Y-32004000D01*
X85047667Y-32088667D01*
X84963000Y-32173334D01*
X84878333Y-32342667D01*
X84116333Y-30903334D02*
X84116333Y-30734001D01*
X84201000Y-30564667D01*
X84285667Y-30480001D01*
X84455000Y-30395334D01*
X84793667Y-30310667D01*
X85217000Y-30310667D01*
X85555667Y-30395334D01*
X85725000Y-30480001D01*
X85809667Y-30564667D01*
X85894333Y-30734001D01*
X85894333Y-30903334D01*
X85809667Y-31072667D01*
X85725000Y-31157334D01*
X85555667Y-31242001D01*
X85217000Y-31326667D01*
X84793667Y-31326667D01*
X84455000Y-31242001D01*
X84285667Y-31157334D01*
X84201000Y-31072667D01*
X84116333Y-30903334D01*
X85386333Y-29633334D02*
X85386333Y-28786668D01*
X85894333Y-29802668D02*
X84116333Y-29210001D01*
X85894333Y-28617334D01*
X85725000Y-27008668D02*
X85809667Y-27093334D01*
X85894333Y-27347334D01*
X85894333Y-27516668D01*
X85809667Y-27770668D01*
X85640333Y-27940001D01*
X85471000Y-28024668D01*
X85132333Y-28109334D01*
X84878333Y-28109334D01*
X84539667Y-28024668D01*
X84370333Y-27940001D01*
X84201000Y-27770668D01*
X84116333Y-27516668D01*
X84116333Y-27347334D01*
X84201000Y-27093334D01*
X84285667Y-27008668D01*
X85894333Y-26246668D02*
X84116333Y-26246668D01*
X84116333Y-25569334D01*
X84201000Y-25400001D01*
X84285667Y-25315334D01*
X84455000Y-25230668D01*
X84709000Y-25230668D01*
X84878333Y-25315334D01*
X84963000Y-25400001D01*
X85047667Y-25569334D01*
X85047667Y-26246668D01*
X85894333Y-24468668D02*
X84116333Y-24468668D01*
D17*
X115969143Y-49826333D02*
X115969143Y-51265667D01*
X116023571Y-51435000D01*
X116078000Y-51519667D01*
X116186857Y-51604333D01*
X116404571Y-51604333D01*
X116513429Y-51519667D01*
X116567857Y-51435000D01*
X116622286Y-51265667D01*
X116622286Y-49826333D01*
X117112143Y-49995667D02*
X117166572Y-49911000D01*
X117275429Y-49826333D01*
X117547572Y-49826333D01*
X117656429Y-49911000D01*
X117710858Y-49995667D01*
X117765286Y-50165000D01*
X117765286Y-50334333D01*
X117710858Y-50588333D01*
X117057715Y-51604333D01*
X117765286Y-51604333D01*
D14*
D17*
X97517859Y-47286333D02*
X98279859Y-47286333D01*
X97790002Y-49064333D01*
X99205144Y-47879000D02*
X99205144Y-49064333D01*
X98933001Y-47201667D02*
X98660858Y-48471667D01*
X99368430Y-48471667D01*
X100348144Y-49064333D02*
X99803858Y-49064333D01*
X99803858Y-47286333D01*
X100565858Y-47286333D02*
X100946858Y-49064333D01*
X101327858Y-47286333D01*
X102362001Y-48895000D02*
X102307572Y-48979667D01*
X102144286Y-49064333D01*
X102035429Y-49064333D01*
X101872144Y-48979667D01*
X101763286Y-48810333D01*
X101708858Y-48641000D01*
X101654429Y-48302333D01*
X101654429Y-48048333D01*
X101708858Y-47709667D01*
X101763286Y-47540333D01*
X101872144Y-47371000D01*
X102035429Y-47286333D01*
X102144286Y-47286333D01*
X102307572Y-47371000D01*
X102362001Y-47455667D01*
X102797429Y-47455667D02*
X102851858Y-47371000D01*
X102960715Y-47286333D01*
X103232858Y-47286333D01*
X103341715Y-47371000D01*
X103396144Y-47455667D01*
X103450572Y-47625000D01*
X103450572Y-47794333D01*
X103396144Y-48048333D01*
X102743001Y-49064333D01*
X103450572Y-49064333D01*
X104430286Y-47879000D02*
X104430286Y-49064333D01*
X104158143Y-47201667D02*
X103886000Y-48471667D01*
X104593572Y-48471667D01*
X105573286Y-47286333D02*
X105029000Y-47286333D01*
X104974571Y-48133000D01*
X105029000Y-48048333D01*
X105137857Y-47963667D01*
X105410000Y-47963667D01*
X105518857Y-48048333D01*
X105573286Y-48133000D01*
X105627714Y-48302333D01*
X105627714Y-48725667D01*
X105573286Y-48895000D01*
X105518857Y-48979667D01*
X105410000Y-49064333D01*
X105137857Y-49064333D01*
X105029000Y-48979667D01*
X104974571Y-48895000D01*
D14*
D17*
X109655429Y-26270857D02*
X110889143Y-26270857D01*
X111034286Y-26216429D01*
X111106857Y-26162000D01*
X111179429Y-26053143D01*
X111179429Y-25835429D01*
X111106857Y-25726571D01*
X111034286Y-25672143D01*
X110889143Y-25617714D01*
X109655429Y-25617714D01*
X111179429Y-24474714D02*
X111179429Y-25127857D01*
X111179429Y-24801285D02*
X109655429Y-24801285D01*
X109873143Y-24910142D01*
X110018286Y-25019000D01*
X110090857Y-25127857D01*
D14*
D17*
X107115429Y-35369499D02*
X107115429Y-34607499D01*
X108639429Y-35097356D01*
X107623429Y-33682214D02*
X108639429Y-33682214D01*
X107042857Y-33954357D02*
X108131429Y-34226500D01*
X108131429Y-33518928D01*
X108639429Y-33083500D02*
X107115429Y-33083500D01*
X107841143Y-33083500D02*
X107841143Y-32430357D01*
X108639429Y-32430357D02*
X107115429Y-32430357D01*
X108494286Y-31232928D02*
X108566857Y-31287357D01*
X108639429Y-31450643D01*
X108639429Y-31559500D01*
X108566857Y-31722785D01*
X108421714Y-31831643D01*
X108276571Y-31886071D01*
X107986286Y-31940500D01*
X107768571Y-31940500D01*
X107478286Y-31886071D01*
X107333143Y-31831643D01*
X107188000Y-31722785D01*
X107115429Y-31559500D01*
X107115429Y-31450643D01*
X107188000Y-31287357D01*
X107260571Y-31232928D01*
X107115429Y-30906357D02*
X107115429Y-30253214D01*
X108639429Y-30579785D02*
X107115429Y-30579785D01*
X107768571Y-29708928D02*
X107696000Y-29817786D01*
X107623429Y-29872214D01*
X107478286Y-29926643D01*
X107405714Y-29926643D01*
X107260571Y-29872214D01*
X107188000Y-29817786D01*
X107115429Y-29708928D01*
X107115429Y-29491214D01*
X107188000Y-29382357D01*
X107260571Y-29327928D01*
X107405714Y-29273500D01*
X107478286Y-29273500D01*
X107623429Y-29327928D01*
X107696000Y-29382357D01*
X107768571Y-29491214D01*
X107768571Y-29708928D01*
X107841143Y-29817786D01*
X107913714Y-29872214D01*
X108058857Y-29926643D01*
X108349143Y-29926643D01*
X108494286Y-29872214D01*
X108566857Y-29817786D01*
X108639429Y-29708928D01*
X108639429Y-29491214D01*
X108566857Y-29382357D01*
X108494286Y-29327928D01*
X108349143Y-29273500D01*
X108058857Y-29273500D01*
X107913714Y-29327928D01*
X107841143Y-29382357D01*
X107768571Y-29491214D01*
X107115429Y-28293786D02*
X107115429Y-28511500D01*
X107188000Y-28620357D01*
X107260571Y-28674786D01*
X107478286Y-28783643D01*
X107768571Y-28838072D01*
X108349143Y-28838072D01*
X108494286Y-28783643D01*
X108566857Y-28729215D01*
X108639429Y-28620357D01*
X108639429Y-28402643D01*
X108566857Y-28293786D01*
X108494286Y-28239357D01*
X108349143Y-28184929D01*
X107986286Y-28184929D01*
X107841143Y-28239357D01*
X107768571Y-28293786D01*
X107696000Y-28402643D01*
X107696000Y-28620357D01*
X107768571Y-28729215D01*
X107841143Y-28783643D01*
X107986286Y-28838072D01*
D14*
X119924286Y-26924000D02*
X119996857Y-26996571D01*
X120069429Y-27214285D01*
X120069429Y-27359428D01*
X119996857Y-27577143D01*
X119851714Y-27722285D01*
X119706571Y-27794857D01*
X119416286Y-27867428D01*
X119198571Y-27867428D01*
X118908286Y-27794857D01*
X118763143Y-27722285D01*
X118618000Y-27577143D01*
X118545429Y-27359428D01*
X118545429Y-27214285D01*
X118618000Y-26996571D01*
X118690571Y-26924000D01*
X120069429Y-25472571D02*
X120069429Y-26343428D01*
X120069429Y-25908000D02*
X118545429Y-25908000D01*
X118763143Y-26053143D01*
X118908286Y-26198285D01*
X118980857Y-26343428D01*
D13*
X126092857Y-29379333D02*
X126141238Y-29427714D01*
X126189619Y-29572857D01*
X126189619Y-29669619D01*
X126141238Y-29814761D01*
X126044476Y-29911523D01*
X125947714Y-29959904D01*
X125754190Y-30008285D01*
X125609048Y-30008285D01*
X125415524Y-29959904D01*
X125318762Y-29911523D01*
X125222000Y-29814761D01*
X125173619Y-29669619D01*
X125173619Y-29572857D01*
X125222000Y-29427714D01*
X125270381Y-29379333D01*
X125270381Y-28992285D02*
X125222000Y-28943904D01*
X125173619Y-28847142D01*
X125173619Y-28605238D01*
X125222000Y-28508476D01*
X125270381Y-28460095D01*
X125367143Y-28411714D01*
X125463905Y-28411714D01*
X125609048Y-28460095D01*
X126189619Y-29040666D01*
X126189619Y-28411714D01*
D18*
M02*
