M48
INCH,TZ
T1C0.025
T2C0.032
T3C0.035
T4C0.040
T5C0.120
T6C0.128
%
G90
G05
T1
X27071Y-12929
X30750Y-18000
X31000Y-13500
X46000Y-13000
X47949Y-14949
X49500Y-18500
X50500Y-14500
T2
X23000Y-20500
X24500Y-8000
X24500Y-11000
X26000Y-8000
X26000Y-11000
X26000Y-20500
X27500Y-8000
X27500Y-11000
X27500Y-19500
X27500Y-22500
X29000Y-9000
X29000Y-10000
X29000Y-11000
X29000Y-12000
X29000Y-13000
X29000Y-14000
X29000Y-15000
X29000Y-16000
X29000Y-17000
X29000Y-18000
X29000Y-19000
X29000Y-20000
X29000Y-21000
X29000Y-22000
X35000Y-9000
X35000Y-10000
X35000Y-11000
X35000Y-12000
X35000Y-13000
X35000Y-14000
X35000Y-15000
X35000Y-16000
X35000Y-17000
X35000Y-18000
X35000Y-19000
X35000Y-20000
X35000Y-21000
X35000Y-22000
X37000Y-10000
X37000Y-12000
X37000Y-14000
X38000Y-18000
X38000Y-21000
X39000Y-18000
X39000Y-21000
X40000Y-10000
X40000Y-12000
X40000Y-14000
X40000Y-18000
X40000Y-21000
X41000Y-18000
X41000Y-21000
X41500Y-9000
X41500Y-10000
X41500Y-11000
X41500Y-12000
X41500Y-13000
X41500Y-14000
X41500Y-15000
X42000Y-18000
X42000Y-21000
X43000Y-18000
X43000Y-21000
X44000Y-18000
X44000Y-21000
X44500Y-9000
X44500Y-10000
X44500Y-11000
X44500Y-12000
X44500Y-13000
X44500Y-14000
X44500Y-15000
X45000Y-18000
X45000Y-21000
X46000Y-18000
X46000Y-21000
X47000Y-8000
X47000Y-13000
X47000Y-16000
X47000Y-18000
X47000Y-21000
X49500Y-10500
X49500Y-12500
X50000Y-16000
T3
X26000Y-13500
X26000Y-14500
X26000Y-15500
X26000Y-16500
X27000Y-14000
X27000Y-15000
X27000Y-16000
X27000Y-17000
T4
X51500Y-10500
X51500Y-11500
X51500Y-12500
X51500Y-16000
X51500Y-17000
X51500Y-18000
X51500Y-19000
X51500Y-20000
T5
X22000Y-8500
X22000Y-22000
X51500Y-8500
X51500Y-22000
T6
X23500Y-12915
X23500Y-17588
T0
M30
