G04 #@! TF.FileFunction,Soldermask,Bot*
%FSLAX46Y46*%
G04 Gerber Fmt 4.6, Leading zero omitted, Abs format (unit mm)*
G04 Created by KiCad (PCBNEW (2015-10-16 BZR 6271)-product) date Thursday, November 26, 2015 'PMt' 11:11:10 PM*
%MOMM*%
G01*
G04 APERTURE LIST*
%ADD10C,0.100000*%
%ADD11C,4.049980*%
%ADD12R,1.901140X1.901140*%
%ADD13C,1.901140*%
%ADD14C,1.797000*%
%ADD15R,1.924000X1.924000*%
%ADD16C,1.924000*%
%ADD17R,1.797000X1.797000*%
%ADD18C,4.464000*%
G04 APERTURE END LIST*
D10*
D11*
X59690000Y-44673520D03*
X59690000Y-32804100D03*
D12*
X66040000Y-34290000D03*
D13*
X68580000Y-35560000D03*
X66040000Y-36830000D03*
X68580000Y-38100000D03*
X66040000Y-39370000D03*
X68580000Y-40640000D03*
X66040000Y-41910000D03*
X68580000Y-43180000D03*
D14*
X66040000Y-52070000D03*
X58420000Y-52070000D03*
X62230000Y-20320000D03*
X62230000Y-27940000D03*
X101600000Y-35560000D03*
X93980000Y-35560000D03*
X101600000Y-30480000D03*
X93980000Y-30480000D03*
X93980000Y-25400000D03*
X101600000Y-25400000D03*
X69850000Y-27940000D03*
X69850000Y-20320000D03*
X66040000Y-20320000D03*
X66040000Y-27940000D03*
X127000000Y-40640000D03*
X119380000Y-40640000D03*
X69850000Y-49530000D03*
X69850000Y-57150000D03*
D15*
X130810000Y-50800000D03*
D16*
X130810000Y-48260000D03*
X130810000Y-45720000D03*
X130810000Y-43180000D03*
X130810000Y-40640000D03*
D15*
X130810000Y-31750000D03*
D16*
X130810000Y-29210000D03*
X130810000Y-26670000D03*
D17*
X88900000Y-55880000D03*
D14*
X88900000Y-53340000D03*
X88900000Y-50800000D03*
X88900000Y-48260000D03*
X88900000Y-45720000D03*
X88900000Y-43180000D03*
X88900000Y-40640000D03*
X88900000Y-38100000D03*
X88900000Y-35560000D03*
X88900000Y-33020000D03*
X88900000Y-30480000D03*
X88900000Y-27940000D03*
X88900000Y-25400000D03*
X88900000Y-22860000D03*
X73660000Y-22860000D03*
X73660000Y-25400000D03*
X73660000Y-27940000D03*
X73660000Y-30480000D03*
X73660000Y-33020000D03*
X73660000Y-35560000D03*
X73660000Y-38100000D03*
X73660000Y-40640000D03*
X73660000Y-43180000D03*
X73660000Y-45720000D03*
X73660000Y-48260000D03*
X73660000Y-50800000D03*
X73660000Y-53340000D03*
X73660000Y-55880000D03*
D17*
X119380000Y-45720000D03*
D14*
X116840000Y-45720000D03*
X114300000Y-45720000D03*
X111760000Y-45720000D03*
X109220000Y-45720000D03*
X106680000Y-45720000D03*
X104140000Y-45720000D03*
X101600000Y-45720000D03*
X99060000Y-45720000D03*
X96520000Y-45720000D03*
X96520000Y-53340000D03*
X99060000Y-53340000D03*
X101600000Y-53340000D03*
X104140000Y-53340000D03*
X106680000Y-53340000D03*
X109220000Y-53340000D03*
X111760000Y-53340000D03*
X114300000Y-53340000D03*
X116840000Y-53340000D03*
X119380000Y-53340000D03*
D17*
X105410000Y-22860000D03*
D14*
X105410000Y-25400000D03*
X105410000Y-27940000D03*
X105410000Y-30480000D03*
X105410000Y-33020000D03*
X105410000Y-35560000D03*
X105410000Y-38100000D03*
X113030000Y-38100000D03*
X113030000Y-35560000D03*
X113030000Y-33020000D03*
X113030000Y-30480000D03*
X113030000Y-27940000D03*
X113030000Y-25400000D03*
X113030000Y-22860000D03*
D17*
X119380000Y-20320000D03*
D14*
X119380000Y-33020000D03*
X125730000Y-26670000D03*
X125730000Y-31750000D03*
D18*
X130810000Y-21590000D03*
X130810000Y-55880000D03*
X55880000Y-55880000D03*
X55880000Y-21590000D03*
M02*
