G04 #@! TF.FileFunction,Copper,L2,Bot,Signal*
%FSLAX46Y46*%
G04 Gerber Fmt 4.6, Leading zero omitted, Abs format (unit mm)*
G04 Created by KiCad (PCBNEW (2015-10-16 BZR 6271)-product) date Thursday, November 26, 2015 'PMt' 11:11:10 PM*
%MOMM*%
G01*
G04 APERTURE LIST*
%ADD10C,0.100000*%
%ADD11C,3.649980*%
%ADD12R,1.501140X1.501140*%
%ADD13C,1.501140*%
%ADD14C,1.397000*%
%ADD15R,1.524000X1.524000*%
%ADD16C,1.524000*%
%ADD17R,1.397000X1.397000*%
%ADD18C,4.064000*%
%ADD19C,0.889000*%
%ADD20C,0.254000*%
G04 APERTURE END LIST*
D10*
D11*
X59690000Y-44673520D03*
X59690000Y-32804100D03*
D12*
X66040000Y-34290000D03*
D13*
X68580000Y-35560000D03*
X66040000Y-36830000D03*
X68580000Y-38100000D03*
X66040000Y-39370000D03*
X68580000Y-40640000D03*
X66040000Y-41910000D03*
X68580000Y-43180000D03*
D14*
X66040000Y-52070000D03*
X58420000Y-52070000D03*
X62230000Y-20320000D03*
X62230000Y-27940000D03*
X101600000Y-35560000D03*
X93980000Y-35560000D03*
X101600000Y-30480000D03*
X93980000Y-30480000D03*
X93980000Y-25400000D03*
X101600000Y-25400000D03*
X69850000Y-27940000D03*
X69850000Y-20320000D03*
X66040000Y-20320000D03*
X66040000Y-27940000D03*
X127000000Y-40640000D03*
X119380000Y-40640000D03*
X69850000Y-49530000D03*
X69850000Y-57150000D03*
D15*
X130810000Y-50800000D03*
D16*
X130810000Y-48260000D03*
X130810000Y-45720000D03*
X130810000Y-43180000D03*
X130810000Y-40640000D03*
D15*
X130810000Y-31750000D03*
D16*
X130810000Y-29210000D03*
X130810000Y-26670000D03*
D17*
X88900000Y-55880000D03*
D14*
X88900000Y-53340000D03*
X88900000Y-50800000D03*
X88900000Y-48260000D03*
X88900000Y-45720000D03*
X88900000Y-43180000D03*
X88900000Y-40640000D03*
X88900000Y-38100000D03*
X88900000Y-35560000D03*
X88900000Y-33020000D03*
X88900000Y-30480000D03*
X88900000Y-27940000D03*
X88900000Y-25400000D03*
X88900000Y-22860000D03*
X73660000Y-22860000D03*
X73660000Y-25400000D03*
X73660000Y-27940000D03*
X73660000Y-30480000D03*
X73660000Y-33020000D03*
X73660000Y-35560000D03*
X73660000Y-38100000D03*
X73660000Y-40640000D03*
X73660000Y-43180000D03*
X73660000Y-45720000D03*
X73660000Y-48260000D03*
X73660000Y-50800000D03*
X73660000Y-53340000D03*
X73660000Y-55880000D03*
D17*
X119380000Y-45720000D03*
D14*
X116840000Y-45720000D03*
X114300000Y-45720000D03*
X111760000Y-45720000D03*
X109220000Y-45720000D03*
X106680000Y-45720000D03*
X104140000Y-45720000D03*
X101600000Y-45720000D03*
X99060000Y-45720000D03*
X96520000Y-45720000D03*
X96520000Y-53340000D03*
X99060000Y-53340000D03*
X101600000Y-53340000D03*
X104140000Y-53340000D03*
X106680000Y-53340000D03*
X109220000Y-53340000D03*
X111760000Y-53340000D03*
X114300000Y-53340000D03*
X116840000Y-53340000D03*
X119380000Y-53340000D03*
D17*
X105410000Y-22860000D03*
D14*
X105410000Y-25400000D03*
X105410000Y-27940000D03*
X105410000Y-30480000D03*
X105410000Y-33020000D03*
X105410000Y-35560000D03*
X105410000Y-38100000D03*
X113030000Y-38100000D03*
X113030000Y-35560000D03*
X113030000Y-33020000D03*
X113030000Y-30480000D03*
X113030000Y-27940000D03*
X113030000Y-25400000D03*
X113030000Y-22860000D03*
D17*
X119380000Y-20320000D03*
D14*
X119380000Y-33020000D03*
X125730000Y-26670000D03*
X125730000Y-31750000D03*
D18*
X130810000Y-21590000D03*
X130810000Y-55880000D03*
X55880000Y-55880000D03*
X55880000Y-21590000D03*
D19*
X128270000Y-36830000D03*
X121791671Y-37971671D03*
X116840000Y-33020000D03*
X78105000Y-45720000D03*
X125730000Y-46990000D03*
X78740000Y-34290000D03*
X68760399Y-32839601D03*
D20*
X113030000Y-35560000D02*
X111760000Y-35560000D01*
X111760000Y-35560000D02*
X109220000Y-38100000D01*
X109220000Y-38100000D02*
X105410000Y-38100000D01*
X119380000Y-33020000D02*
X116840000Y-35560000D01*
X116840000Y-35560000D02*
X113030000Y-35560000D01*
X125730000Y-31750000D02*
X124460000Y-33020000D01*
X124460000Y-33020000D02*
X119380000Y-33020000D01*
X96520000Y-45720000D02*
X88900000Y-45720000D01*
X130810000Y-31750000D02*
X125730000Y-31750000D01*
X128270000Y-36830000D02*
X121216418Y-36830000D01*
X121216418Y-36830000D02*
X116644408Y-41402010D01*
X100959919Y-29146499D02*
X104076499Y-29146499D01*
X104076499Y-29146499D02*
X105410000Y-30480000D01*
X116644408Y-41402010D02*
X102554366Y-41402010D01*
X102554366Y-41402010D02*
X98297990Y-37145634D01*
X98297990Y-37145634D02*
X98297990Y-31808428D01*
X98297990Y-31808428D02*
X100959919Y-29146499D01*
X121791671Y-37971671D02*
X123062999Y-39242999D01*
X132207001Y-45049439D02*
X132207001Y-50418999D01*
X123062999Y-39242999D02*
X131480561Y-39242999D01*
X131480561Y-39242999D02*
X132207001Y-39969439D01*
X132207001Y-50418999D02*
X131826000Y-50800000D01*
X132207001Y-39969439D02*
X132207001Y-44322999D01*
X132207001Y-44322999D02*
X132080000Y-44450000D01*
X132080000Y-44450000D02*
X132080000Y-44922438D01*
X132080000Y-44922438D02*
X132207001Y-45049439D01*
X131826000Y-50800000D02*
X130810000Y-50800000D01*
X113030000Y-33020000D02*
X116840000Y-33020000D01*
X58420000Y-48260000D02*
X63500000Y-48260000D01*
X63500000Y-48260000D02*
X68580000Y-43180000D01*
X58420000Y-52070000D02*
X58420000Y-48260000D01*
X66040000Y-52070000D02*
X67027828Y-52070000D01*
X67027828Y-52070000D02*
X72171329Y-57213501D01*
X72171329Y-57213501D02*
X74300081Y-57213501D01*
X74300081Y-57213501D02*
X79819501Y-51694081D01*
X79819501Y-51694081D02*
X79819501Y-31559501D01*
X79819501Y-31559501D02*
X73660000Y-25400000D01*
X73660000Y-35560000D02*
X74930000Y-35560000D01*
X74930000Y-35560000D02*
X76200000Y-34290000D01*
X76200000Y-34290000D02*
X76200000Y-26670000D01*
X76200000Y-26670000D02*
X74930000Y-25400000D01*
X74930000Y-25400000D02*
X73660000Y-25400000D01*
X78105000Y-45720000D02*
X73660000Y-45720000D01*
X116840000Y-53340000D02*
X116840000Y-52070000D01*
X116840000Y-52070000D02*
X119380000Y-49530000D01*
X119380000Y-49530000D02*
X123190000Y-49530000D01*
X123190000Y-49530000D02*
X125730000Y-46990000D01*
X127000000Y-40640000D02*
X130810000Y-40640000D01*
X66040000Y-20320000D02*
X73660000Y-27940000D01*
X73660000Y-38100000D02*
X74930000Y-38100000D01*
X74930000Y-38100000D02*
X78740000Y-34290000D01*
X71120000Y-35560000D02*
X71120000Y-45720000D01*
X71120000Y-45720000D02*
X73660000Y-48260000D01*
X68580000Y-35560000D02*
X71120000Y-35560000D01*
X63500000Y-20320000D02*
X63500000Y-27236418D01*
X63500000Y-27236418D02*
X64706499Y-28442917D01*
X64706499Y-28442917D02*
X64706499Y-30312357D01*
X64706499Y-30312357D02*
X68580000Y-34185858D01*
X68580000Y-34185858D02*
X68580000Y-35560000D01*
X62230000Y-20320000D02*
X63500000Y-20320000D01*
X72146100Y-32839601D02*
X72326499Y-33020000D01*
X72326499Y-33020000D02*
X72326499Y-41846499D01*
X72326499Y-41846499D02*
X73660000Y-43180000D01*
X68760399Y-32839601D02*
X72146100Y-32839601D01*
X62928499Y-29908499D02*
X66040000Y-33020000D01*
X66040000Y-33020000D02*
X66040000Y-34290000D01*
X62230000Y-27940000D02*
X62928499Y-28638499D01*
X62928499Y-28638499D02*
X62928499Y-29908499D01*
X101600000Y-35560000D02*
X105410000Y-35560000D01*
X113030000Y-38100000D02*
X110490000Y-40640000D01*
X110490000Y-40640000D02*
X104140000Y-40640000D01*
X104140000Y-40640000D02*
X101600000Y-38100000D01*
X101600000Y-38100000D02*
X100330000Y-38100000D01*
X100330000Y-38100000D02*
X99060000Y-36830000D01*
X99060000Y-36830000D02*
X99060000Y-33020000D01*
X99060000Y-33020000D02*
X101600000Y-30480000D01*
X93980000Y-35560000D02*
X88900000Y-35560000D01*
X88900000Y-30480000D02*
X93980000Y-30480000D01*
X93980000Y-25400000D02*
X88900000Y-25400000D01*
X114300000Y-53340000D02*
X114300000Y-52070000D01*
X114300000Y-52070000D02*
X118110000Y-48260000D01*
X118110000Y-48260000D02*
X121920000Y-48260000D01*
X121920000Y-48260000D02*
X124460000Y-45720000D01*
X124460000Y-45720000D02*
X130810000Y-45720000D01*
X130810000Y-43180000D02*
X116840000Y-43180000D01*
X116840000Y-43180000D02*
X116840000Y-45720000D01*
X119380000Y-20320000D02*
X125730000Y-26670000D01*
X101600000Y-25400000D02*
X99060000Y-22860000D01*
X99060000Y-22860000D02*
X88900000Y-22860000D01*
X113030000Y-22860000D02*
X115570000Y-20320000D01*
X115570000Y-20320000D02*
X119380000Y-20320000D01*
X101600000Y-25400000D02*
X101600000Y-22860000D01*
X101600000Y-22860000D02*
X102870000Y-21590000D01*
X102870000Y-21590000D02*
X102870000Y-20320000D01*
X102870000Y-20320000D02*
X107950000Y-20320000D01*
X107950000Y-20320000D02*
X107950000Y-21590000D01*
X107950000Y-21590000D02*
X111760000Y-25400000D01*
X111760000Y-25400000D02*
X113030000Y-25400000D01*
X125730000Y-26670000D02*
X130810000Y-26670000D01*
M02*
