G04 #@! TF.FileFunction,Copper,L1,Top,Signal*
%FSLAX46Y46*%
G04 Gerber Fmt 4.6, Leading zero omitted, Abs format (unit mm)*
G04 Created by KiCad (PCBNEW (2015-10-16 BZR 6271)-product) date Thursday, November 26, 2015 'PMt' 11:11:10 PM*
%MOMM*%
G01*
G04 APERTURE LIST*
%ADD10C,0.100000*%
%ADD11C,3.649980*%
%ADD12R,1.501140X1.501140*%
%ADD13C,1.501140*%
%ADD14C,1.397000*%
%ADD15R,1.524000X1.524000*%
%ADD16C,1.524000*%
%ADD17R,1.397000X1.397000*%
%ADD18C,4.064000*%
%ADD19C,0.889000*%
%ADD20C,0.254000*%
G04 APERTURE END LIST*
D10*
D11*
X59690000Y-44673520D03*
X59690000Y-32804100D03*
D12*
X66040000Y-34290000D03*
D13*
X68580000Y-35560000D03*
X66040000Y-36830000D03*
X68580000Y-38100000D03*
X66040000Y-39370000D03*
X68580000Y-40640000D03*
X66040000Y-41910000D03*
X68580000Y-43180000D03*
D14*
X66040000Y-52070000D03*
X58420000Y-52070000D03*
X62230000Y-20320000D03*
X62230000Y-27940000D03*
X101600000Y-35560000D03*
X93980000Y-35560000D03*
X101600000Y-30480000D03*
X93980000Y-30480000D03*
X93980000Y-25400000D03*
X101600000Y-25400000D03*
X69850000Y-27940000D03*
X69850000Y-20320000D03*
X66040000Y-20320000D03*
X66040000Y-27940000D03*
X127000000Y-40640000D03*
X119380000Y-40640000D03*
X69850000Y-49530000D03*
X69850000Y-57150000D03*
D15*
X130810000Y-50800000D03*
D16*
X130810000Y-48260000D03*
X130810000Y-45720000D03*
X130810000Y-43180000D03*
X130810000Y-40640000D03*
D15*
X130810000Y-31750000D03*
D16*
X130810000Y-29210000D03*
X130810000Y-26670000D03*
D17*
X88900000Y-55880000D03*
D14*
X88900000Y-53340000D03*
X88900000Y-50800000D03*
X88900000Y-48260000D03*
X88900000Y-45720000D03*
X88900000Y-43180000D03*
X88900000Y-40640000D03*
X88900000Y-38100000D03*
X88900000Y-35560000D03*
X88900000Y-33020000D03*
X88900000Y-30480000D03*
X88900000Y-27940000D03*
X88900000Y-25400000D03*
X88900000Y-22860000D03*
X73660000Y-22860000D03*
X73660000Y-25400000D03*
X73660000Y-27940000D03*
X73660000Y-30480000D03*
X73660000Y-33020000D03*
X73660000Y-35560000D03*
X73660000Y-38100000D03*
X73660000Y-40640000D03*
X73660000Y-43180000D03*
X73660000Y-45720000D03*
X73660000Y-48260000D03*
X73660000Y-50800000D03*
X73660000Y-53340000D03*
X73660000Y-55880000D03*
D17*
X119380000Y-45720000D03*
D14*
X116840000Y-45720000D03*
X114300000Y-45720000D03*
X111760000Y-45720000D03*
X109220000Y-45720000D03*
X106680000Y-45720000D03*
X104140000Y-45720000D03*
X101600000Y-45720000D03*
X99060000Y-45720000D03*
X96520000Y-45720000D03*
X96520000Y-53340000D03*
X99060000Y-53340000D03*
X101600000Y-53340000D03*
X104140000Y-53340000D03*
X106680000Y-53340000D03*
X109220000Y-53340000D03*
X111760000Y-53340000D03*
X114300000Y-53340000D03*
X116840000Y-53340000D03*
X119380000Y-53340000D03*
D17*
X105410000Y-22860000D03*
D14*
X105410000Y-25400000D03*
X105410000Y-27940000D03*
X105410000Y-30480000D03*
X105410000Y-33020000D03*
X105410000Y-35560000D03*
X105410000Y-38100000D03*
X113030000Y-38100000D03*
X113030000Y-35560000D03*
X113030000Y-33020000D03*
X113030000Y-30480000D03*
X113030000Y-27940000D03*
X113030000Y-25400000D03*
X113030000Y-22860000D03*
D17*
X119380000Y-20320000D03*
D14*
X119380000Y-33020000D03*
X125730000Y-26670000D03*
X125730000Y-31750000D03*
D18*
X130810000Y-21590000D03*
X130810000Y-55880000D03*
X55880000Y-55880000D03*
X55880000Y-21590000D03*
D19*
X128270000Y-36830000D03*
X121791671Y-37971671D03*
X116840000Y-33020000D03*
X78105000Y-45720000D03*
X125730000Y-46990000D03*
X78740000Y-34290000D03*
X68760399Y-32839601D03*
D20*
X119380000Y-40640000D02*
X120650000Y-40640000D01*
X120650000Y-40640000D02*
X128270000Y-33020000D01*
X128270000Y-33020000D02*
X128270000Y-29210000D01*
X128270000Y-29210000D02*
X130810000Y-29210000D01*
X119380000Y-53340000D02*
X119380000Y-45720000D01*
X119380000Y-45720000D02*
X119380000Y-40640000D01*
X105410000Y-38100000D02*
X102870000Y-38100000D01*
X102870000Y-38100000D02*
X96520000Y-44450000D01*
X96520000Y-44450000D02*
X96520000Y-45720000D01*
X88900000Y-40640000D02*
X87630000Y-40640000D01*
X87630000Y-40640000D02*
X86360000Y-39370000D01*
X86360000Y-39370000D02*
X86360000Y-29210000D01*
X86360000Y-29210000D02*
X87630000Y-27940000D01*
X87630000Y-27940000D02*
X88900000Y-27940000D01*
X105410000Y-33020000D02*
X106680000Y-33020000D01*
X106680000Y-33020000D02*
X107950000Y-31750000D01*
X107950000Y-31750000D02*
X107950000Y-26670000D01*
X107950000Y-26670000D02*
X106680000Y-25400000D01*
X106680000Y-25400000D02*
X105410000Y-25400000D01*
X105410000Y-38100000D02*
X106680000Y-38100000D01*
X106680000Y-38100000D02*
X107950000Y-36830000D01*
X107950000Y-36830000D02*
X107950000Y-34290000D01*
X107950000Y-34290000D02*
X106680000Y-33020000D01*
X88900000Y-45720000D02*
X87630000Y-45720000D01*
X87630000Y-45720000D02*
X86360000Y-44450000D01*
X86360000Y-44450000D02*
X86360000Y-41910000D01*
X86360000Y-41910000D02*
X87630000Y-40640000D01*
X105410000Y-25400000D02*
X105410000Y-22860000D01*
X128333501Y-36893501D02*
X128270000Y-36830000D01*
X129540000Y-48260000D02*
X128333501Y-47053501D01*
X128333501Y-47053501D02*
X128333501Y-36893501D01*
X130810000Y-48260000D02*
X129540000Y-48260000D01*
X116840000Y-33020000D02*
X121791671Y-37971671D01*
X71755000Y-56515000D02*
X71755000Y-52705000D01*
X71755000Y-52705000D02*
X73660000Y-50800000D01*
X71120000Y-57150000D02*
X71755000Y-56515000D01*
X69850000Y-57150000D02*
X71120000Y-57150000D01*
X73660000Y-30480000D02*
X68580000Y-30480000D01*
X68580000Y-30480000D02*
X66040000Y-27940000D01*
X73660000Y-50800000D02*
X76962010Y-47497990D01*
X76962010Y-47497990D02*
X76962010Y-33782010D01*
X76962010Y-33782010D02*
X73660000Y-30480000D01*
X66040000Y-41910000D02*
X67310000Y-41910000D01*
X67310000Y-41910000D02*
X68580000Y-43180000D01*
X80645000Y-20955000D02*
X80645000Y-43180000D01*
X80645000Y-43180000D02*
X78105000Y-45720000D01*
X78676499Y-18986499D02*
X80645000Y-20955000D01*
X67945000Y-19050000D02*
X69146418Y-19050000D01*
X69146418Y-19050000D02*
X69209919Y-18986499D01*
X69209919Y-18986499D02*
X78676499Y-18986499D01*
X67945000Y-20251418D02*
X67945000Y-19050000D01*
X67945000Y-26035000D02*
X67945000Y-20251418D01*
X68580000Y-26670000D02*
X67945000Y-26035000D01*
X69850000Y-27940000D02*
X68580000Y-26670000D01*
X125730000Y-46990000D02*
X127000000Y-40640000D01*
X69850000Y-20320000D02*
X71120000Y-20320000D01*
X71120000Y-20320000D02*
X73660000Y-22860000D01*
X69850000Y-49530000D02*
X70548499Y-48831501D01*
X70548499Y-48831501D02*
X70548499Y-43751501D01*
X70548499Y-43751501D02*
X73660000Y-40640000D01*
X73660000Y-40640000D02*
X74930000Y-40640000D01*
X74930000Y-40640000D02*
X76200000Y-39370000D01*
X76200000Y-39370000D02*
X76200000Y-34290000D01*
X76200000Y-34290000D02*
X74930000Y-33020000D01*
X74930000Y-33020000D02*
X73660000Y-33020000D01*
X78740000Y-34290000D02*
X76200000Y-31750000D01*
X76200000Y-31750000D02*
X76200000Y-29210000D01*
X76200000Y-29210000D02*
X74930000Y-27940000D01*
X74930000Y-27940000D02*
X73660000Y-27940000D01*
X66040000Y-34290000D02*
X67310000Y-34290000D01*
X67310000Y-34290000D02*
X68760399Y-32839601D01*
X113030000Y-27940000D02*
X111760000Y-27940000D01*
X111760000Y-27940000D02*
X107950000Y-24130000D01*
X107950000Y-24130000D02*
X107950000Y-20320000D01*
X107950000Y-20320000D02*
X99060000Y-20320000D01*
X99060000Y-20320000D02*
X93980000Y-25400000D01*
X116840000Y-45720000D02*
X116840000Y-44450000D01*
X116840000Y-44450000D02*
X115570000Y-43180000D01*
X115570000Y-43180000D02*
X115570000Y-31750000D01*
X115570000Y-31750000D02*
X114300000Y-30480000D01*
X114300000Y-30480000D02*
X113030000Y-30480000D01*
X88900000Y-22860000D02*
X90170000Y-22860000D01*
X90170000Y-22860000D02*
X91440000Y-24130000D01*
X91440000Y-24130000D02*
X91440000Y-31750000D01*
X91440000Y-31750000D02*
X90170000Y-33020000D01*
X90170000Y-33020000D02*
X88900000Y-33020000D01*
X88900000Y-43180000D02*
X90170000Y-43180000D01*
X90170000Y-43180000D02*
X91440000Y-44450000D01*
X91440000Y-44450000D02*
X91440000Y-52070000D01*
X91440000Y-52070000D02*
X90170000Y-53340000D01*
X90170000Y-53340000D02*
X88900000Y-53340000D01*
X90170000Y-33020000D02*
X91440000Y-34290000D01*
X91440000Y-34290000D02*
X91440000Y-36830000D01*
X91440000Y-36830000D02*
X90170000Y-38100000D01*
X90170000Y-38100000D02*
X88900000Y-38100000D01*
X90170000Y-38100000D02*
X91440000Y-39370000D01*
X91440000Y-39370000D02*
X91440000Y-41910000D01*
X91440000Y-41910000D02*
X90170000Y-43180000D01*
X88900000Y-53340000D02*
X88900000Y-55880000D01*
X113030000Y-25400000D02*
X113030000Y-22860000D01*
M02*
